<svg width="40" height="40" viewBox="0 0 40 40" fill="none" xmlns="http://www.w3.org/2000/svg">
    <g transform="rotate(90 20 20)">
        <path fill-rule="evenodd" clip-rule="evenodd" d="M20 32C26.6274 32 32 26.6274 32 20C32 13.3726 26.6274 8 20 8C13.3726 8 8 13.3726 8 20C8 26.6274 13.3726 32 20 32ZM20 36C28.8366 36 36 28.8366 36 20C36 11.1634 28.8366 4 20 4C11.1634 4 4 11.1634 4 20C4 28.8366 11.1634 36 20 36Z" fill="#2C3E50"/>
        <path d="M20 12V28" stroke="#2C3E50" stroke-width="2" stroke-linecap="round"/>
        <circle cx="20" cy="20" r="5" fill="#2C3E50"/>
        <circle cx="20" cy="20" r="2" fill="white"/>
        <rect x="18.5" y="2" width="3" height="5" rx="1.5" fill="#2C3E50"/>
        <rect x="18.5" y="33" width="3" height="5" rx="1.5" fill="#2C3E50"/>
        <rect x="33" y="18.5" width="5" height="3" rx="1.5" fill="#2C3E50"/>
        <rect x="2" y="18.5" width="5" height="3" rx="1.5" fill="#2C3E50"/>
    </g>
</svg>